<?xml version="1.0" encoding="utf-8"?>
<!-- Generator: Adobe Illustrator 16.0.0, SVG Export Plug-In . SVG Version: 6.00 Build 0)  -->
<svg version="1.2" baseProfile="tiny" id="Layer_1" xmlns="http://www.w3.org/2000/svg" xmlns:xlink="http://www.w3.org/1999/xlink"
	 x="0px" y="0px" width="960px" height="560px" viewBox="0 0 960 560" xml:space="preserve">
<g>
	<path fill="#1963CC" stroke="#000000" stroke-width="4" stroke-miterlimit="10" d="M173.57,114.987V97.472
		c38.344,1.739,70.688,2.604,97.042,2.604c10.257,0,27.062-0.315,50.415-0.947c11.042-0.315,21.22-0.473,30.533-0.473
		c33.452,0,57.594,4.97,72.427,14.911c19.563,12.939,29.35,31.953,29.35,57.042c0,21.775-7.419,40-22.249,54.675
		c-11.045,11.207-27.929,20.355-50.651,27.456c20.198,1.578,36.45,5.171,48.758,10.77c12.308,5.602,21.894,14.083,28.758,25.444
		c6.864,11.36,10.296,24.697,10.296,40c0,18.78-5.326,36.296-15.978,52.545c-10.65,16.253-26.628,28.797-47.93,37.634
		c-21.302,8.84-48.679,13.255-82.131,13.255c-8.994,0-20.355-0.236-34.083-0.711c-17.673-0.792-29.744-1.183-36.213-1.183
		c-11.992,0-38.107,0.946-78.344,2.84v-17.515l39.527-8.521c3.468-1.101,6.072-2.521,7.811-4.26
		c1.736-1.736,3.077-4.104,4.023-7.101c1.262-4.89,1.999-18.699,2.209-41.422c0.42-39.764,0.631-76.766,0.631-111.007
		c0-19.089-0.473-49.074-1.42-89.942c-0.319-12.15-1.739-20.273-4.261-24.379c-1.42-2.209-3.869-4.023-7.337-5.444
		C213.333,123.117,199.605,120.194,173.57,114.987z M297.358,244.456h11.834c25.878,0,44.652-5.444,56.332-16.332
		c11.677-10.888,17.515-26.982,17.515-48.285c0-18.461-4.852-32.505-14.556-42.13c-9.704-9.622-23.87-14.438-42.486-14.438
		c-7.732,0-17.278,0.792-28.639,2.367V244.456z M297.358,269.072v133.966c10.568,1.894,20.273,2.84,29.112,2.84
		c21.618,0,37.907-5.799,48.876-17.396c10.967-11.599,16.45-29.548,16.45-53.848c0-24.932-6.236-42.092-18.698-51.48
		c-12.466-9.384-33.692-14.083-63.669-14.083H297.358z"/>
</g>
<g>
	<path fill="#E5F0FF" stroke="#000000" stroke-width="4" stroke-miterlimit="10" d="M172.663,115.987V98.472
		c40.342,1.739,71.783,2.604,94.321,2.604c23.008,0,53.659-0.865,91.954-2.604v17.515c-32.509,4.892-50.178,8.047-53.019,9.467
		c-4.733,2.686-7.101,9.55-7.101,20.592l-0.947,60.829V403.8h86.372c14.241,0,23.729-0.946,28.479-2.84
		c6.482-2.683,12.729-7.492,18.741-14.438c6.016-6.942,16.614-23.037,31.799-48.284h21.357
		c-10.572,29.194-20.911,61.224-31.006,96.096c-67.065-1.739-122.842-2.604-167.339-2.604c-36.45,0-74.32,0.863-113.611,2.604
		v-17.515c27.959-5.523,43.354-9.312,46.184-11.361c2.824-2.048,4.592-5.878,5.299-11.479c0.707-5.6,1.062-43.434,1.062-113.493
		l-0.236-86.155v-15.148c0-25.244-0.865-40.392-2.594-45.444c-1.256-3.787-3.416-6.427-6.479-7.929
		C212.838,124.311,198.426,121.04,172.663,115.987z"/>
</g>
</svg>
